<?xml version="1.0" encoding="utf-8"?>
<!-- Generator: Adobe Illustrator 21.1.0, SVG Export Plug-In . SVG Version: 6.00 Build 0)  -->
<svg version="1.1" id="Warstwa_1" xmlns="http://www.w3.org/2000/svg" xmlns:xlink="http://www.w3.org/1999/xlink" x="0px" y="0px"
	 viewBox="0 0 150 150" style="enable-background:new 0 0 150 150;" xml:space="preserve">
<style type="text/css">
	.st0{display:none;}
</style>
<rect class="st0" width="150" height="150"/>
<g>
	<path d="M27.4,31.1v35.1c0,0.2,0.1,0.4,0.1,0.5L65,127.5c0.2,0.3,0.5,0.5,0.9,0.5h21.6c0.8,0,1.3-0.9,0.9-1.5l-59-95.8
		C28.7,29.7,27.4,30.1,27.4,31.1z"/>
	<path d="M56.6,45.9c0.3,0.5,0.9,0.6,1.4,0.3c13.9-7.9,31.7-3.5,40.1,10.2c8.5,13.7,4.4,31.6-8.9,40.4c-0.5,0.3-0.6,0.9-0.3,1.4
		l9.5,15.4c0.3,0.5,0.9,0.6,1.4,0.3c22.7-14.6,29.7-45.2,15.5-68.3C101,22.7,70.5,15.2,47.3,28.9c-0.5,0.3-0.6,0.9-0.3,1.4
		C50.2,35.5,53.4,40.7,56.6,45.9z"/>
	<path d="M41.2,109.8c-4.3,0-8.5,0.1-12.8,0.1c-0.6,0-1-0.4-1-1l0-18.2c0-0.6,0.5-1,1-1l1.3,0c0.6,0,1.1,0,1.7,0
		c0.4,0,0.7,0.2,0.9,0.5l0.7,1.2c3.1,5.6,6.1,11.2,9.2,16.9C42.5,109,42,109.8,41.2,109.8z"/>
</g>
</svg>
